<?xml version="1.0" encoding="UTF-8" standalone="no"?>
<svg
   xmlns:dc="http://purl.org/dc/elements/1.1/"
   xmlns:cc="http://creativecommons.org/ns#"
   xmlns:rdf="http://www.w3.org/1999/02/22-rdf-syntax-ns#"
   xmlns:svg="http://www.w3.org/2000/svg"
   xmlns="http://www.w3.org/2000/svg"
   viewBox="0 0 747.86267 823.95868"
   height="823.95868"
   width="747.86267"
   xml:space="preserve"
   id="svg2"
   version="1.1"><metadata
     id="metadata8"><rdf:RDF><cc:Work
         rdf:about=""><dc:format>image/svg+xml</dc:format><dc:type
           rdf:resource="http://purl.org/dc/dcmitype/StillImage" /></cc:Work></rdf:RDF></metadata><defs
     id="defs6"><clipPath
       id="clipPath18"
       clipPathUnits="userSpaceOnUse"><path
         id="path16"
         d="M 0,617.969 H 560.897 V 0 H 0 Z" /></clipPath><clipPath
       id="clipPath58"
       clipPathUnits="userSpaceOnUse"><path
         id="path56"
         d="M 0,617.969 H 560.897 V 0 H 0 Z" /></clipPath><clipPath
       id="clipPath118"
       clipPathUnits="userSpaceOnUse"><path
         id="path116"
         d="m 195.926,337.673 h 44.072 v -40.378 h -44.072 z" /></clipPath><clipPath
       id="clipPath138"
       clipPathUnits="userSpaceOnUse"><path
         id="path136"
         d="M 0,617.969 H 560.897 V 0 H 0 Z" /></clipPath><clipPath
       id="clipPath146"
       clipPathUnits="userSpaceOnUse"><path
         id="path144"
         d="M 73.0755,408.966 H 357.297 V 234.247 H 73.0755 Z" /></clipPath><clipPath
       id="clipPath162"
       clipPathUnits="userSpaceOnUse"><path
         id="path160"
         d="M 47.1073,239.914 H 383.265 V 219.317 H 47.1073 Z" /></clipPath><clipPath
       id="clipPath178"
       clipPathUnits="userSpaceOnUse"><path
         id="path176"
         d="m 238.575,143.58 h 32.39 v -22.333 h -32.39 z" /></clipPath><clipPath
       id="clipPath194"
       clipPathUnits="userSpaceOnUse"><path
         id="path192"
         d="M 137.563,204.247 H 282.897 V 190.58 H 137.563 Z" /></clipPath><clipPath
       id="clipPath210"
       clipPathUnits="userSpaceOnUse"><path
         id="path208"
         d="M 78.924,252.58 H 351.449 V 238.647 H 78.924 Z" /></clipPath><clipPath
       id="clipPath226"
       clipPathUnits="userSpaceOnUse"><path
         id="path224"
         d="M 78.924,400.58 H 351.449 V 386.647 H 78.924 Z" /></clipPath><clipPath
       id="clipPath242"
       clipPathUnits="userSpaceOnUse"><path
         id="path240"
         d="m 200.23,143.58 h 24.667 V 121.247 H 200.23 Z" /></clipPath><clipPath
       id="clipPath258"
       clipPathUnits="userSpaceOnUse"><path
         id="path256"
         d="m 150.398,143.58 h 32.39 v -22.333 h -32.39 z" /></clipPath><clipPath
       id="clipPath274"
       clipPathUnits="userSpaceOnUse"><path
         id="path272"
         d="m 496.397,287.914 h 35 V 256.08 h -35 z" /></clipPath><clipPath
       id="clipPath290"
       clipPathUnits="userSpaceOnUse"><path
         id="path288"
         d="m 390.897,373.58 h 42 v -92 h -42 z" /></clipPath><clipPath
       id="clipPath306"
       clipPathUnits="userSpaceOnUse"><path
         id="path304"
         d="m 441.564,287.914 h 42 v -30.472 h -42 z" /></clipPath><clipPath
       id="clipPath322"
       clipPathUnits="userSpaceOnUse"><path
         id="path320"
         d="m 265.897,509.913 h 52.666 v -52.666 h -52.666 z" /></clipPath><clipPath
       id="clipPath338"
       clipPathUnits="userSpaceOnUse"><path
         id="path336"
         d="m 229.897,559.913 h 52.666 v -52.666 h -52.666 z" /></clipPath><clipPath
       id="clipPath354"
       clipPathUnits="userSpaceOnUse"><path
         id="path352"
         d="m 112.23,502.914 h 42 v -42 h -42 z" /></clipPath><clipPath
       id="clipPath370"
       clipPathUnits="userSpaceOnUse"><path
         id="path368"
         d="m 90.23,536.247 h 42 v -42 h -42 z" /></clipPath><clipPath
       id="clipPath386"
       clipPathUnits="userSpaceOnUse"><path
         id="path384"
         d="M 0,617.969 H 560.897 V 0 H 0 Z" /></clipPath></defs><g
     transform="matrix(1.3333333,0,0,-1.3333333,0,823.95867)"
     id="g10"><g
       id="g12"><g
         clip-path="url(#clipPath18)"
         id="g14"><g
           transform="translate(487.305,400.9986)"
           id="g20"><path
             id="path22"
             style="fill:#000000;fill-opacity:1;fill-rule:nonzero;stroke:none"
             d="m 0,0 c -0.823,0.511 -1.771,0.782 -2.74,0.782 -0.8,0 -1.602,-0.189 -2.327,-0.55 l -44,-22 c -0.375,-0.187 -0.711,-0.421 -1.022,-0.682 -0.903,0.757 -2.051,1.232 -3.319,1.232 h -44 c -0.148,0 -0.287,-0.032 -0.432,-0.044 V 2.845 c 0,14.476 -11.777,26.253 -26.253,26.253 h -296.052 c -14.476,0 -26.253,-11.777 -26.253,-26.253 v -164.474 c 0,-14.476 11.777,-26.253 26.253,-26.253 h 296.052 c 14.476,0 26.253,11.777 26.253,26.253 v 36.054 c 0.145,-0.012 0.284,-0.044 0.432,-0.044 h 44 c 1.269,0 2.418,0.475 3.322,1.234 0.241,-0.205 0.496,-0.396 0.776,-0.555 l 44.001,-25.001 c 0.782,-0.443 1.669,-0.678 2.568,-0.678 0.915,0 1.817,0.244 2.616,0.707 1.594,0.928 2.584,2.65 2.584,4.494 v 141 C 2.459,-2.603 1.537,-0.949 0,0" /></g><g
           transform="translate(530.3968,379.88)"
           id="g24"><path
             id="path26"
             style="fill:#000000;fill-opacity:1;fill-rule:nonzero;stroke:none"
             d="m 0,0 h 3 c 2.316,0 4.2,1.884 4.2,4.2 v 13.5 c 0,2.867 -2.333,5.2 -5.2,5.2 h -37 c -2.867,0 -5.2,-2.333 -5.2,-5.2 v -142.5 c 0,-2.867 2.333,-5.2 5.2,-5.2 H 2 c 2.867,0 5.2,2.333 5.2,5.2 v 25.5 c 0,2.316 -1.884,4.2 -4.2,4.2 H 0 c -8.437,0 -15.3,6.864 -15.3,15.3 0,8.437 6.863,15.3 15.3,15.3 h 3 c 2.316,0 4.2,1.884 4.2,4.2 v 25.5 c 0,2.316 -1.884,4.2 -4.2,4.2 H 0 c -8.437,0 -15.3,6.864 -15.3,15.3 C -15.3,-6.863 -8.437,0 0,0" /></g><g
           transform="translate(273.5638,434.7135)"
           id="g28"><path
             id="path30"
             style="fill:#000000;fill-opacity:1;fill-rule:nonzero;stroke:none"
             d="m 0,0 c 42.384,0 76.866,34.482 76.866,76.867 0,42.384 -34.482,76.866 -76.866,76.866 -42.385,0 -76.867,-34.482 -76.867,-76.866 C -76.867,34.482 -42.385,0 0,0" /></g><g
           transform="translate(122.5633,438.38)"
           id="g32"><path
             id="path34"
             style="fill:#000000;fill-opacity:1;fill-rule:nonzero;stroke:none"
             d="M 0,0 C 34.297,0 62.2,27.903 62.2,62.2 62.2,96.498 34.297,124.4 0,124.4 -34.297,124.4 -62.2,96.498 -62.2,62.2 -62.2,27.903 -34.297,0 0,0" /></g><g
           transform="translate(269.7152,146.7823)"
           id="g36"><path
             id="path38"
             style="fill:#000000;fill-opacity:1;fill-rule:nonzero;stroke:none"
             d="m 0,0 c -0.527,1.766 -2.183,2.998 -4.024,2.998 h -29.881 c -1.325,0 -2.587,-0.636 -3.376,-1.701 -0.789,-1.067 -1.029,-2.46 -0.644,-3.716 l 28.34,-93.653 c 0.527,-1.765 2.183,-2.997 4.024,-2.997 H 24.32 c 1.335,0 2.602,0.643 3.361,1.68 0.801,1.07 1.047,2.471 0.66,3.735 z" /></g><g
           transform="translate(270.5638,157.38)"
           id="g40"><path
             id="path42"
             style="fill:#000000;fill-opacity:1;fill-rule:nonzero;stroke:none"
             d="m 0,0 c 10.22,0 18.533,8.313 18.533,18.533 v 29.334 c 0,2.867 -2.333,5.2 -5.2,5.2 h -147.334 c -2.867,0 -5.2,-2.333 -5.2,-5.2 V 18.533 C -139.201,8.313 -130.887,0 -120.667,0 Z" /></g><g
           transform="translate(226.8968,149.7804)"
           id="g44"><path
             id="path46"
             style="fill:#000000;fill-opacity:1;fill-rule:nonzero;stroke:none"
             d="m 0,0 h -28.667 c -2.315,0 -4.2,-1.884 -4.2,-4.2 v -93.667 c 0,-2.317 1.885,-4.2 4.2,-4.2 H 0 c 2.316,0 4.2,1.883 4.2,4.2 L 4.2,-4.2 C 4.2,-1.884 2.316,0 0,0" /></g><g
           transform="translate(185.5526,149.7804)"
           id="g48"><path
             id="path50"
             style="fill:#000000;fill-opacity:1;fill-rule:nonzero;stroke:none"
             d="m 0,0 h -29.881 c -1.871,0 -3.488,-1.204 -4.02,-2.984 l -28.341,-93.654 c -0.388,-1.268 -0.149,-2.662 0.641,-3.728 0.788,-1.066 2.05,-1.701 3.375,-1.701 h 29.881 c 1.871,0 3.488,1.204 4.02,2.983 L 4.016,-5.43 c 0.389,1.269 0.149,2.662 -0.64,3.729 C 2.587,-0.636 1.325,0 0,0" /></g></g></g><g
       id="g52"><g
         clip-path="url(#clipPath58)"
         id="g54"><g
           transform="translate(95.5282,408.566)"
           id="g60"><path
             id="path62"
             style="fill:#808285;fill-opacity:1;fill-rule:nonzero;stroke:none"
             d="m 0,0 c -12.16,0 -22.052,-9.893 -22.052,-22.053 v -129.813 c 0,-12.16 9.892,-22.053 22.052,-22.053 h 239.316 c 12.16,0 22.053,9.893 22.053,22.053 V -22.053 C 261.369,-9.893 251.476,0 239.316,0 Z m -28.368,-189.249 c -11.057,0 -20.053,8.996 -20.053,20.053 V -4.723 c 0,11.057 8.996,20.053 20.053,20.053 h 296.052 c 11.057,0 20.053,-8.996 20.053,-20.053 v -164.473 c 0,-11.057 -8.996,-20.053 -20.053,-20.053 z" /></g><g
           transform="translate(265.7884,53.9132)"
           id="g64"><path
             id="path66"
             style="fill:#231f20;fill-opacity:1;fill-rule:nonzero;stroke:none"
             d="m 0,0 c -0.088,0 -0.166,0.058 -0.191,0.143 l -27.014,89.266 c -0.019,0.061 -0.007,0.126 0.031,0.177 0.037,0.051 0.097,0.081 0.16,0.081 H -1.73 c 0.087,0 0.166,-0.058 0.191,-0.143 L 25.475,0.258 C 25.493,0.197 25.481,0.132 25.443,0.081 25.406,0.03 25.347,0 25.283,0 Z" /></g><g
           transform="translate(235.2137,163.5665)"
           id="g68"><path
             id="path70"
             style="fill:#231f20;fill-opacity:1;fill-rule:nonzero;stroke:none"
             d="M 0,0 C -0.033,0 -0.081,0.015 -0.109,0.029 L -54.633,0.014 h -30.684 c -6.801,0 -12.333,5.532 -12.333,12.333 V 40.48 c 0,0.111 0.089,0.201 0.2,0.201 H 47.483 c 0.11,0 0.2,-0.09 0.2,-0.201 V 12.347 C 47.683,5.546 42.151,0.014 35.35,0.014 H 22.94 L 5.606,0 C 5.592,0 5.578,0.002 5.564,0.005 5.546,0.009 5.513,0.021 5.497,0.029 Z" /></g><g
           transform="translate(95.5282,236.6471)"
           id="g72"><path
             id="path74"
             style="fill:#be1e2d;fill-opacity:1;fill-rule:nonzero;stroke:none"
             d="m 0,0 c -11.057,0 -20.052,8.996 -20.052,20.053 v 129.813 c 0,11.057 8.995,20.053 20.052,20.053 h 239.316 c 11.057,0 20.053,-8.996 20.053,-20.053 V 20.053 C 259.369,8.996 250.373,0 239.316,0 Z" /></g><g
           transform="translate(273.5638,440.9137)"
           id="g76"><path
             id="path78"
             style="fill:#ef4136;fill-opacity:1;fill-rule:nonzero;stroke:none"
             d="m 0,0 c -38.966,0 -70.667,31.701 -70.667,70.667 0,38.965 31.701,70.666 70.667,70.666 38.965,0 70.666,-31.701 70.666,-70.666 C 70.666,31.701 38.965,0 0,0" /></g><g
           transform="translate(122.5633,444.5802)"
           id="g80"><path
             id="path82"
             style="fill:#ef4136;fill-opacity:1;fill-rule:nonzero;stroke:none"
             d="m 0,0 c -30.878,0 -56,25.122 -56,56 0,30.878 25.122,56 56,56 C 30.878,112 56,86.878 56,56 56,25.122 30.878,0 0,0" /></g><g
           transform="translate(200.4305,53.9132)"
           id="g84"><path
             id="path86"
             style="fill:#231f20;fill-opacity:1;fill-rule:nonzero;stroke:none"
             d="m 0,0 c -0.11,0 -0.2,0.09 -0.2,0.2 v 89.267 c 0,0.11 0.09,0.2 0.2,0.2 h 24.266 c 0.11,0 0.2,-0.09 0.2,-0.2 V 0.2 c 0,-0.11 -0.09,-0.2 -0.2,-0.2 z" /></g><g
           transform="translate(130.2913,53.9132)"
           id="g88"><path
             id="path90"
             style="fill:#231f20;fill-opacity:1;fill-rule:nonzero;stroke:none"
             d="m 0,0 c -0.063,0 -0.123,0.03 -0.161,0.081 -0.037,0.051 -0.049,0.116 -0.03,0.177 l 27.013,89.266 c 0.025,0.085 0.103,0.143 0.191,0.143 h 25.283 c 0.064,0 0.123,-0.03 0.161,-0.081 0.038,-0.051 0.049,-0.116 0.031,-0.177 L 25.475,0.143 C 25.449,0.058 25.372,0 25.283,0 Z" /></g><g
           transform="translate(496.597,256.0802)"
           id="g92"><path
             id="path94"
             style="fill:#414042;fill-opacity:1;fill-rule:nonzero;stroke:none"
             d="m 0,0 c -0.11,0 -0.2,0.09 -0.2,0.2 v 140.1 c 0,0.11 0.09,0.2 0.2,0.2 h 34.6 c 0.11,0 0.2,-0.09 0.2,-0.2 v -10.1 c 0,-0.11 -0.09,-0.2 -0.2,-0.2 H 33.8 C 21.944,130 12.3,120.355 12.3,108.5 12.3,96.645 21.944,87 33.8,87 h 0.8 c 0.11,0 0.2,-0.09 0.2,-0.2 V 65.7 c 0,-0.11 -0.09,-0.2 -0.2,-0.2 H 33.8 C 21.944,65.5 12.3,55.855 12.3,44 12.3,32.145 21.944,22.5 33.8,22.5 h 0.8 c 0.11,0 0.2,-0.09 0.2,-0.2 V 0.2 C 34.8,0.09 34.71,0 34.6,0 Z" /></g><g
           transform="translate(391.097,281.5802)"
           id="g96"><path
             id="path98"
             style="fill:#414042;fill-opacity:1;fill-rule:nonzero;stroke:none"
             d="m 0,0 c -0.11,0 -0.2,0.09 -0.2,0.2 v 91.6 c 0,0.11 0.09,0.2 0.2,0.2 h 41.6 c 0.11,0 0.2,-0.09 0.2,-0.2 V 0.2 C 41.8,0.09 41.71,0 41.6,0 Z" /></g><g
           transform="translate(483.3636,257.442)"
           id="g100"><path
             id="path102"
             style="fill:#414042;fill-opacity:1;fill-rule:nonzero;stroke:none"
             d="m 0,0 c -0.034,0 -0.068,0.009 -0.099,0.026 l -41.599,23.637 c -0.063,0.035 -0.102,0.102 -0.102,0.173 v 92.56 c 0,0.076 0.043,0.146 0.111,0.179 l 41.599,20.8 c 0.028,0.014 0.06,0.021 0.09,0.021 0.036,0 0.073,-0.01 0.105,-0.03 0.059,-0.036 0.095,-0.1 0.095,-0.17 L 0.2,0.2 C 0.2,0.129 0.162,0.063 0.101,0.027 0.069,0.009 0.035,0 0,0" /></g><g
           transform="translate(273.5638,447.9137)"
           id="g104"><path
             id="path106"
             style="fill:#231f20;fill-opacity:1;fill-rule:nonzero;stroke:none"
             d="m 0,0 c -35.106,0 -63.667,28.561 -63.667,63.667 0,35.105 28.561,63.666 63.667,63.666 35.105,0 63.666,-28.561 63.666,-63.666 C 63.666,28.561 35.105,0 0,0" /></g><g
           transform="translate(122.5633,451.5802)"
           id="g108"><path
             id="path110"
             style="fill:#231f20;fill-opacity:1;fill-rule:nonzero;stroke:none"
             d="M 0,0 C -27.019,0 -49,21.981 -49,49 -49,76.019 -27.019,98 0,98 27.019,98 49,76.019 49,49 49,21.981 27.019,0 0,0" /></g><g
           id="g112"><g
             id="g114" /><g
             id="g126"><g
               style="opacity:0.14999402"
               id="g124"
               clip-path="url(#clipPath118)"><g
                 id="g122"
                 transform="translate(195.9258,333.4097)"><path
                   id="path120"
                   style="fill:#414042;fill-opacity:1;fill-rule:nonzero;stroke:none"
                   d="m 0,0 v -31.851 c 0,-3.135 3.272,-5.195 6.099,-3.84 l 35.554,17.036 c 3.319,1.59 3.195,6.357 -0.202,7.772 L 5.897,3.931 C 3.092,5.1 0,3.039 0,0" /></g></g></g></g><g
           transform="translate(194.1307,336.8239)"
           id="g128"><path
             id="path130"
             style="fill:#ffffff;fill-opacity:1;fill-rule:nonzero;stroke:none"
             d="m 0,0 v -30.434 c 0,-2.995 3.127,-4.964 5.828,-3.67 L 39.8,-17.825 c 3.171,1.519 3.053,6.074 -0.193,7.426 L 5.634,3.756 C 2.954,4.873 0,2.904 0,0" /></g></g></g><g
       id="g132"><g
         clip-path="url(#clipPath138)"
         id="g134"><g
           id="g140"><g
             id="g142" /><g
             id="g154"><g
               style="opacity:0.14999402"
               id="g152"
               clip-path="url(#clipPath146)"><g
                 id="g150"
                 transform="translate(95.5282,406.1656)"><path
                   id="path148"
                   style="fill:#414042;fill-opacity:1;fill-rule:nonzero;stroke:none"
                   d="m 0,0 c -10.836,0 -19.652,-8.816 -19.652,-19.652 v -129.814 c 0,-10.836 8.816,-19.652 19.652,-19.652 h 239.316 c 10.837,0 19.652,8.816 19.652,19.652 V -19.652 C 258.968,-8.816 250.153,0 239.316,0 Z m 0,-171.919 c -12.38,0 -22.453,10.073 -22.453,22.453 v 129.814 c 0,12.38 10.073,22.453 22.453,22.453 h 239.316 c 12.381,0 22.453,-10.073 22.453,-22.453 v -129.814 c 0,-12.38 -10.072,-22.453 -22.453,-22.453 z" /></g></g></g></g><g
           id="g156"><g
             id="g158" /><g
             id="g170"><g
               style="opacity:0.14999402"
               id="g168"
               clip-path="url(#clipPath162)"><g
                 id="g166"
                 transform="translate(349.1228,239.9135)"><path
                   id="path164"
                   style="fill:#414042;fill-opacity:1;fill-rule:nonzero;stroke:none"
                   d="m 0,0 c -3.851,-3.28 -8.836,-5.266 -14.279,-5.266 h -239.316 c -5.442,0 -10.427,1.986 -14.278,5.266 h -34.143 v -0.544 c 0,-11.057 8.996,-20.053 20.053,-20.053 H 14.089 c 11.057,0 20.053,8.996 20.053,20.053 l 0,0.544 z" /></g></g></g></g><g
           id="g172"><g
             id="g174" /><g
             id="g186"><g
               style="opacity:0.14999402"
               id="g184"
               clip-path="url(#clipPath178)"><g
                 id="g182"
                 transform="translate(270.9647,121.2469)"><path
                   id="path180"
                   style="fill:#414042;fill-opacity:1;fill-rule:nonzero;stroke:none"
                   d="m 0,0 -6.715,22.191 c -0.026,0.085 -0.104,0.142 -0.192,0.142 H -32.19 c -0.063,0 -0.123,-0.03 -0.161,-0.081 -0.037,-0.051 -0.049,-0.116 -0.03,-0.176 L -25.701,0 Z" /></g></g></g></g><g
           id="g188"><g
             id="g190" /><g
             id="g202"><g
               style="opacity:0.14999402"
               id="g200"
               clip-path="url(#clipPath194)"><g
                 id="g198"
                 transform="translate(282.8968,190.5802)"><path
                   id="path196"
                   style="fill:#414042;fill-opacity:1;fill-rule:nonzero;stroke:none"
                   d="m 0,0 v 13.467 c 0,0.11 -0.09,0.2 -0.2,0.2 h -144.933 c -0.111,0 -0.201,-0.09 -0.201,-0.2 l 0,-13.467 z" /></g></g></g></g><g
           id="g204"><g
             id="g206" /><g
             id="g218"><g
               style="opacity:0.14999402"
               id="g216"
               clip-path="url(#clipPath210)"><g
                 id="g214"
                 transform="translate(78.924,252.5802)"><path
                   id="path212"
                   style="fill:#414042;fill-opacity:1;fill-rule:nonzero;stroke:none"
                   d="m 0,0 c 1.037,-7.819 9.368,-13.933 19.461,-13.933 h 233.602 c 10.093,0 18.424,6.114 19.462,13.933 z" /></g></g></g></g><g
           id="g220"><g
             id="g222" /><g
             id="g234"><g
               style="opacity:0.14999402"
               id="g232"
               clip-path="url(#clipPath226)"><g
                 id="g230"
                 transform="translate(351.4487,386.6471)"><path
                   id="path228"
                   style="fill:#ffffff;fill-opacity:1;fill-rule:nonzero;stroke:none"
                   d="m 0,0 c -1.037,7.819 -9.368,13.933 -19.461,13.933 h -233.602 c -10.093,0 -18.424,-6.114 -19.462,-13.933 z" /></g></g></g></g><g
           id="g236"><g
             id="g238" /><g
             id="g250"><g
               style="opacity:0.14999402"
               id="g248"
               clip-path="url(#clipPath242)"><g
                 id="g246"
                 transform="translate(224.8968,121.2469)"><path
                   id="path244"
                   style="fill:#414042;fill-opacity:1;fill-rule:nonzero;stroke:none"
                   d="m 0,0 v 22.133 c 0,0.11 -0.09,0.2 -0.2,0.2 h -24.266 c -0.111,0 -0.201,-0.09 -0.201,-0.2 l 0,-22.133 z" /></g></g></g></g><g
           id="g252"><g
             id="g254" /><g
             id="g266"><g
               style="opacity:0.14999402"
               id="g264"
               clip-path="url(#clipPath258)"><g
                 id="g262"
                 transform="translate(176.0988,121.2469)"><path
                   id="path260"
                   style="fill:#414042;fill-opacity:1;fill-rule:nonzero;stroke:none"
                   d="m 0,0 6.68,22.076 c 0.019,0.06 0.007,0.125 -0.03,0.176 -0.038,0.051 -0.098,0.081 -0.161,0.081 h -25.283 c -0.089,0 -0.166,-0.057 -0.192,-0.142 L -25.701,0 Z" /></g></g></g></g><g
           id="g268"><g
             id="g270" /><g
             id="g282"><g
               style="opacity:0.14999402"
               id="g280"
               clip-path="url(#clipPath274)"><g
                 id="g278"
                 transform="translate(531.1966,278.5802)"><path
                   id="path276"
                   style="fill:#414042;fill-opacity:1;fill-rule:nonzero;stroke:none"
                   d="M 0,0 H -0.8 C -8.141,0 -14.627,3.703 -18.508,9.333 H -34.8 V -22.3 c 0,-0.11 0.09,-0.2 0.2,-0.2 H 0 c 0.11,0 0.2,0.09 0.2,0.2 V -0.2 C 0.2,-0.09 0.11,0 0,0" /></g></g></g></g><g
           id="g284"><g
             id="g286" /><g
             id="g298"><g
               style="opacity:0.14999402"
               id="g296"
               clip-path="url(#clipPath290)"><g
                 id="g294"
                 transform="translate(401.2301,287.9135)"><path
                   id="path292"
                   style="fill:#414042;fill-opacity:1;fill-rule:nonzero;stroke:none"
                   d="m 0,0 v 85.667 h -10.133 c -0.11,0 -0.2,-0.09 -0.2,-0.201 V -6.133 c 0,-0.111 0.09,-0.2 0.2,-0.2 h 41.599 c 0.111,0 0.201,0.089 0.201,0.2 l 0,6.133 z" /></g></g></g></g><g
           id="g300"><g
             id="g302" /><g
             id="g314"><g
               style="opacity:0.14999402"
               id="g312"
               clip-path="url(#clipPath306)"><g
                 id="g310"
                 transform="translate(441.5638,287.9135)"><path
                   id="path308"
                   style="fill:#414042;fill-opacity:1;fill-rule:nonzero;stroke:none"
                   d="m 0,0 v -6.635 c 0,-0.072 0.039,-0.138 0.102,-0.174 l 41.599,-23.636 c 0.03,-0.018 0.065,-0.027 0.099,-0.027 0.035,0 0.069,0.01 0.1,0.028 0.062,0.035 0.1,0.101 0.1,0.173 L 42,0 Z" /></g></g></g></g><g
           id="g316"><g
             id="g318" /><g
             id="g330"><g
               style="opacity:0.14999402"
               id="g328"
               clip-path="url(#clipPath322)"><g
                 id="g326"
                 transform="translate(292.2302,457.247)"><path
                   id="path324"
                   style="fill:#414042;fill-opacity:1;fill-rule:nonzero;stroke:none"
                   d="m 0,0 c -14.52,0 -26.333,11.813 -26.333,26.333 0,14.52 11.813,26.333 26.333,26.333 14.52,0 26.333,-11.813 26.333,-26.333 C 26.333,11.813 14.52,0 0,0" /></g></g></g></g><g
           id="g332"><g
             id="g334" /><g
             id="g346"><g
               style="opacity:0.14999402"
               id="g344"
               clip-path="url(#clipPath338)"><g
                 id="g342"
                 transform="translate(256.2302,507.247)"><path
                   id="path340"
                   style="fill:#ffffff;fill-opacity:1;fill-rule:nonzero;stroke:none"
                   d="m 0,0 c -14.52,0 -26.333,11.813 -26.333,26.333 0,14.52 11.813,26.333 26.333,26.333 14.52,0 26.333,-11.813 26.333,-26.333 C 26.333,11.813 14.52,0 0,0" /></g></g></g></g><g
           id="g348"><g
             id="g350" /><g
             id="g362"><g
               style="opacity:0.14999402"
               id="g360"
               clip-path="url(#clipPath354)"><g
                 id="g358"
                 transform="translate(133.23,460.9135)"><path
                   id="path356"
                   style="fill:#414042;fill-opacity:1;fill-rule:nonzero;stroke:none"
                   d="m 0,0 c -11.579,0 -21,9.421 -21,21 0,11.579 9.421,21 21,21 C 11.579,42 21,32.579 21,21 21,9.421 11.579,0 0,0" /></g></g></g></g><g
           id="g364"><g
             id="g366" /><g
             id="g378"><g
               style="opacity:0.14999402"
               id="g376"
               clip-path="url(#clipPath370)"><g
                 id="g374"
                 transform="translate(111.23,494.2468)"><path
                   id="path372"
                   style="fill:#ffffff;fill-opacity:1;fill-rule:nonzero;stroke:none"
                   d="m 0,0 c -11.579,0 -21,9.421 -21,21 0,11.579 9.421,21 21,21 C 11.579,42 21,32.579 21,21 21,9.421 11.579,0 0,0" /></g></g></g></g></g></g><g
       id="g380"><g
         clip-path="url(#clipPath386)"
         id="g382"><g
           transform="translate(383.0648,239.3697)"
           id="g388"><path
             id="path390"
             style="fill:#000000;fill-opacity:1;fill-rule:nonzero;stroke:none"
             d="m 0,0 c 0,-10.947 -8.905,-19.853 -19.853,-19.853 h -296.052 c -10.947,0 -19.852,8.906 -19.852,19.853 v 164.474 c 0,10.946 8.905,19.852 19.852,19.852 H -19.853 C -8.905,184.326 0,175.42 0,164.474 Z m -19.853,186.727 h -296.052 c -12.27,0 -22.253,-9.983 -22.253,-22.253 V 0 c 0,-12.27 9.983,-22.253 22.253,-22.253 H -19.853 C -7.582,-22.253 2.4,-12.27 2.4,0 v 164.474 c 0,12.27 -9.982,22.253 -22.253,22.253" /></g><g
           transform="translate(354.6966,256.6998)"
           id="g392"><path
             id="path394"
             style="fill:#000000;fill-opacity:1;fill-rule:nonzero;stroke:none"
             d="m 0,0 c 0,-10.947 -8.905,-19.853 -19.853,-19.853 h -239.315 c -10.947,0 -19.853,8.906 -19.853,19.853 v 129.813 c 0,10.947 8.906,19.853 19.853,19.853 H -19.853 C -8.905,149.666 0,140.76 0,129.813 Z m -19.853,152.066 h -239.315 c -12.27,0 -22.253,-9.983 -22.253,-22.253 V 0 c 0,-12.27 9.983,-22.253 22.253,-22.253 H -19.853 C -7.582,-22.253 2.4,-12.27 2.4,0 v 129.813 c 0,12.27 -9.982,22.253 -22.253,22.253" /></g><path
           id="path396"
           style="fill:#000000;fill-opacity:1;fill-rule:nonzero;stroke:none"
           d="m 432.697,281.78 h -41.6 v 91.6 h 41.6 z m 1.2,94 h -44 c -0.662,0 -1.2,-0.538 -1.2,-1.2 v -94 c 0,-0.661 0.538,-1.2 1.2,-1.2 h 44 c 0.662,0 1.2,0.539 1.2,1.2 v 94 c 0,0.662 -0.538,1.2 -1.2,1.2" /><g
           transform="translate(483.3636,257.6422)"
           id="g398"><path
             id="path400"
             style="fill:#000000;fill-opacity:1;fill-rule:nonzero;stroke:none"
             d="m 0,0 -41.6,23.636 v 92.56 l 41.6,20.8 z m 1.831,139.958 c -0.189,0.118 -0.407,0.18 -0.63,0.18 -0.185,0 -0.371,-0.044 -0.538,-0.127 l -44,-22 C -43.746,117.807 -44,117.396 -44,116.938 v -94 c 0,-0.431 0.232,-0.831 0.607,-1.043 l 44,-25 c 0.181,-0.103 0.386,-0.157 0.593,-0.157 0.212,0 0.42,0.056 0.604,0.163 0.368,0.214 0.596,0.612 0.596,1.037 v 141 c 0,0.419 -0.212,0.8 -0.569,1.02" /></g><g
           transform="translate(531.1966,386.2804)"
           id="g402"><path
             id="path404"
             style="fill:#000000;fill-opacity:1;fill-rule:nonzero;stroke:none"
             d="m 0,0 h -0.8 c -11.966,0 -21.7,-9.735 -21.7,-21.7 0,-11.966 9.734,-21.7 21.7,-21.7 H 0 v -21.1 h -0.8 c -11.966,0 -21.7,-9.735 -21.7,-21.7 0,-11.966 9.734,-21.7 21.7,-21.7 H 0 V -130 H -34.6 V 10.1 l 34.6,0 z m 1.2,12.5 h -37 c -0.662,0 -1.2,-0.539 -1.2,-1.2 v -142.5 c 0,-0.662 0.538,-1.2 1.2,-1.2 h 37 c 0.662,0 1.2,0.538 1.2,1.2 v 23.5 2 c 0,0.11 -0.089,0.2 -0.2,0.2 h -2 -1 c -10.641,0 -19.3,8.658 -19.3,19.3 0,10.642 8.659,19.3 19.3,19.3 h 1 2 c 0.111,0 0.2,0.089 0.2,0.2 v 2 21.5 2 c 0,0.11 -0.089,0.2 -0.2,0.2 h -2 -1 c -10.641,0 -19.3,8.658 -19.3,19.3 0,10.642 8.659,19.3 19.3,19.3 h 1 2 c 0.111,0 0.2,0.089 0.2,0.2 v 2 11.5 c 0,0.661 -0.538,1.2 -1.2,1.2" /></g><g
           transform="translate(273.5638,582.0465)"
           id="g406"><path
             id="path408"
             style="fill:#000000;fill-opacity:1;fill-rule:nonzero;stroke:none"
             d="m 0,0 c 38.855,0 70.466,-31.611 70.466,-70.466 0,-38.856 -31.611,-70.467 -70.466,-70.467 -38.855,0 -70.467,31.611 -70.467,70.467 C -70.467,-31.611 -38.855,0 0,0 m 0,-143.333 c 40.179,0 72.866,32.688 72.866,72.867 C 72.866,-30.288 40.179,2.4 0,2.4 c -40.179,0 -72.867,-32.688 -72.867,-72.866 0,-40.179 32.688,-72.867 72.867,-72.867" /></g><g
           transform="translate(122.5633,556.38)"
           id="g410"><path
             id="path412"
             style="fill:#000000;fill-opacity:1;fill-rule:nonzero;stroke:none"
             d="m 0,0 c 30.768,0 55.8,-25.032 55.8,-55.8 0,-30.768 -25.032,-55.8 -55.8,-55.8 -30.768,0 -55.8,25.032 -55.8,55.8 C -55.8,-25.032 -30.768,0 0,0 m 0,-114 c 32.092,0 58.2,26.108 58.2,58.2 0,32.092 -26.108,58.2 -58.2,58.2 -32.092,0 -58.2,-26.108 -58.2,-58.2 0,-32.092 26.108,-58.2 58.2,-58.2" /></g><g
           transform="translate(265.7882,54.1134)"
           id="g414"><path
             id="path416"
             style="fill:#000000;fill-opacity:1;fill-rule:nonzero;stroke:none"
             d="M 0,0 -27.014,89.267 H -1.73 L 25.284,0 Z m 0.699,89.524 -0.605,2 c -0.025,0.085 -0.104,0.143 -0.191,0.143 h -2.09 -25.702 -2.089 c -0.064,0 -0.123,-0.03 -0.161,-0.081 -0.038,-0.051 -0.049,-0.116 -0.031,-0.177 l 0.606,-2 27.134,-89.667 0.605,-2 C -1.8,-2.343 -1.721,-2.4 -1.634,-2.4 h 2.09 25.702 2.089 c 0.064,0 0.123,0.03 0.16,0.081 0.038,0.05 0.05,0.116 0.032,0.176 l -0.605,2 z" /></g><g
           transform="translate(240.8195,163.7668)"
           id="g418"><path
             id="path420"
             style="fill:#000000;fill-opacity:1;fill-rule:nonzero;stroke:none"
             d="M 0,0 C -0.013,0.003 -0.023,0.014 -0.037,0.014 L -5.606,0 C -5.62,0.003 -5.629,0.014 -5.643,0.014 h -48.99 -5.606 -17.372 -2.09 -11.222 c -6.69,0 -12.133,5.442 -12.133,12.132 V 40.28 H 41.877 V 12.146 c 0,-6.69 -5.442,-12.132 -12.133,-12.132 h -10.32 -2.09 z m 20.029,-2.387 h 9.715 c 8.014,0 14.534,6.52 14.534,14.533 V 41.48 c 0,0.662 -0.539,1.2 -1.201,1.2 h -147.333 c -0.662,0 -1.2,-0.538 -1.2,-1.2 V 12.146 c 0,-8.013 6.52,-14.533 14.533,-14.533 h 10.618 2.089 23.214 4.407 40.914 4.407 23.214 z" /></g><path
           id="path422"
           style="fill:#000000;fill-opacity:1;fill-rule:nonzero;stroke:none"
           d="m 224.697,54.113 h -24.266 v 89.267 h 24.266 z m 2.2,91.667 h -2 -24.667 -2 c -0.11,0 -0.2,-0.089 -0.2,-0.2 v -2 -89.667 -2 c 0,-0.11 0.09,-0.2 0.2,-0.2 h 2 24.667 2 c 0.11,0 0.2,0.09 0.2,0.2 v 2 89.667 2 c 0,0.111 -0.09,0.2 -0.2,0.2" /><g
           transform="translate(155.5747,54.1134)"
           id="g424"><path
             id="path426"
             style="fill:#000000;fill-opacity:1;fill-rule:nonzero;stroke:none"
             d="M 0,0 H -25.284 L 1.73,89.267 H 27.013 Z M 29.978,91.667 H 27.888 2.187 0.097 c -0.088,0 -0.166,-0.058 -0.191,-0.143 l -0.605,-2 -27.135,-89.667 -0.605,-2 c -0.019,-0.06 -0.007,-0.126 0.031,-0.176 0.037,-0.051 0.097,-0.081 0.16,-0.081 h 2.09 25.701 2.09 c 0.088,0 0.166,0.057 0.191,0.142 l 0.606,2 27.134,89.667 0.605,2 c 0.019,0.061 0.007,0.126 -0.031,0.177 -0.037,0.051 -0.097,0.081 -0.16,0.081" /></g></g></g></g></svg>